<svg width="75" height="75" viewBox="0 0 75 75" fill="none" xmlns="http://www.w3.org/2000/svg">
<path d="M43.5603 36.4029C45.065 35.5547 45.8783 33.8568 45.5979 32.1536C45.2496 29.524 42.115 28.5313 39.642 28.3224V24.3692H37.2039V28.2876H35.5669V24.3692H33.1288V28.2876H28.2178V30.8127H30.0463C30.8649 30.8127 31.2654 31.0566 31.2654 31.7183V42.5678C31.2654 43.4733 30.8126 43.752 30.325 43.752H28.4616V46.3294H33.1985V50.3348H35.6539V46.3294H37.2909V50.3348H39.6768V46.3294H40.1992C45.2147 46.3294 46.8866 43.8739 46.8866 40.5303C46.8465 38.5588 45.4794 36.8626 43.5603 36.4029ZM35.5668 30.9695H37.3083C38.5274 30.9695 40.9306 31.1785 40.9306 33.1637C41.0142 34.4594 40.0755 35.5949 38.7886 35.7585H35.5668V30.9695ZM38.2661 43.5081V43.4907H35.5668V38.2662H38.7016C39.433 38.2662 42.1845 38.51 42.1845 40.4605C42.1845 42.411 40.8784 43.5081 38.2661 43.5081Z" fill="#2148E8"/>
<path d="M37.5174 14.9999C25.0902 14.9895 15.0105 25.0553 15 37.4825C14.9895 49.9097 25.0554 59.9895 37.4826 60C49.9081 59.9895 59.9809 49.9255 60 37.4999C60 25.0797 49.9377 15.0104 37.5174 14.9999ZM37.4826 56.2558C27.1243 56.2558 18.7268 47.8583 18.7268 37.4999C18.7268 27.1416 27.1243 18.7441 37.4826 18.7441C47.8374 18.7546 56.2279 27.1451 56.2384 37.4999C56.2384 47.8583 47.841 56.2558 37.4826 56.2558Z" fill="#2148E8"/>
<circle cx="37.5" cy="37.5" r="37.5" fill="#5673EB" fill-opacity="0.45"/>
</svg>
